<svg width="60" height="60" viewBox="0 0 60 60" fill="none" xmlns="http://www.w3.org/2000/svg">
<rect width="60" height="60" fill="black"/>
<g clip-path="url(#clip0_1772_9537)">
<path d="M10.0273 31.308C10.0273 30.4809 10.0273 29.6538 10.0388 28.8182C10.0697 28.6612 10.0929 28.5131 10.1081 28.3642C10.1382 28.0702 10.1524 27.774 10.1941 27.4817C10.2557 27.05 10.3178 26.617 10.4117 26.1915C10.559 25.5244 10.7113 24.8569 10.9001 24.2008C11.271 22.9122 11.8104 21.691 12.4626 20.5216C12.7722 19.9664 13.0962 19.4174 13.4445 18.8859C13.7468 18.4247 14.0791 17.9813 14.4228 17.5497C14.7882 17.0909 15.1682 16.6419 15.5677 16.2127C16.1081 15.632 16.6853 15.087 17.311 14.5977C17.7354 14.2659 18.1536 13.9221 18.6037 13.6285C19.2807 13.1868 19.969 12.7582 20.679 12.3733C21.3116 12.0304 21.9699 11.729 22.636 11.4565C23.2584 11.2018 23.8994 10.9869 24.5445 10.7961C25.1129 10.628 25.6964 10.5079 26.2771 10.3854C26.5942 10.3185 26.9192 10.2873 27.2413 10.2461C27.4363 10.2212 27.6326 10.2051 27.8287 10.1901C28.1856 10.1626 28.5429 10.1389 28.9058 10.1188C28.9266 10.1265 28.9417 10.129 28.9692 10.1319C29.6553 10.1327 30.3289 10.1336 31.0024 10.1324C31.0458 10.1324 31.0892 10.1165 31.145 10.1084C31.2662 10.109 31.3758 10.1005 31.4835 10.1111C31.9055 10.1525 32.3278 10.1932 32.7483 10.2473C33.1229 10.2955 33.4978 10.3487 33.8682 10.4223C34.2807 10.5044 34.6943 10.5917 35.0966 10.713C35.8216 10.9316 36.5447 11.1598 37.2571 11.4163C38.0147 11.6891 38.7455 12.029 39.4473 12.4263C39.9034 12.6847 40.3653 12.9367 40.8002 13.2281C41.369 13.6091 41.9241 14.0128 42.4654 14.4322C42.9071 14.7745 43.3353 15.1379 43.742 15.5212C44.3554 16.0992 44.942 16.7056 45.4601 17.3733C45.8015 17.8132 46.1464 18.2513 46.4662 18.7068C47.1198 19.6377 47.6964 20.616 48.1576 21.6574C48.4165 22.242 48.6696 22.8314 48.8796 23.4347C49.0864 24.0287 49.2474 24.6398 49.4058 25.2493C49.523 25.7002 49.6204 26.1579 49.696 26.6177C49.7719 27.08 49.8181 27.5478 49.8624 28.0146C49.9086 28.5015 49.9369 28.9901 49.9639 29.4855C49.9523 29.8395 49.9496 30.186 49.9486 30.5324C49.9486 30.5472 49.9646 30.562 49.973 30.5893C49.9639 30.8678 49.9564 31.134 49.9449 31.4C49.9397 31.521 49.9305 31.6422 49.9164 31.7624C49.8736 32.126 49.8309 32.4897 49.7817 32.8525C49.7385 33.1704 49.7034 33.4908 49.635 33.8035C49.4956 34.4408 49.3448 35.0759 49.1828 35.7078C48.9718 36.5311 48.6763 37.327 48.3335 38.103C48.1068 38.6162 47.8524 39.118 47.5916 39.615C47.4017 39.977 47.1906 40.3289 46.972 40.6746C46.5574 41.3301 46.1168 41.9682 45.6114 42.5581C45.2498 42.9803 44.9036 43.4188 44.5131 43.8126C43.9676 44.3627 43.397 44.8892 42.8182 45.4043C42.4523 45.7299 42.0581 46.0248 41.6656 46.3187C40.8806 46.9063 40.0471 47.42 39.1717 47.8586C38.5764 48.1569 37.9646 48.4249 37.348 48.6768C36.8769 48.8692 36.3932 49.0376 35.9037 49.1761C35.2604 49.3582 34.6084 49.5116 33.9553 49.6558C33.5134 49.7534 33.0645 49.822 32.6165 49.888C32.3251 49.9309 32.0294 49.9446 31.7361 49.9752C31.7133 49.9775 31.6936 50.0093 31.6725 50.0274C30.5298 50.0274 29.3872 50.0274 28.236 50.016C28.1955 49.994 28.164 49.9769 28.1313 49.974C27.9039 49.9536 27.6745 49.9483 27.4491 49.9151C27.0184 49.8518 26.5862 49.79 26.1615 49.6967C25.5776 49.5685 24.998 49.4193 24.4206 49.2641C24.0699 49.1698 23.7284 49.0416 23.3792 48.9409C23.2701 48.9094 23.2216 48.8599 23.2455 48.7531C23.2693 48.647 23.3356 48.5924 23.4517 48.6112C23.6316 48.6404 23.8115 48.6712 23.9924 48.6923C24.3339 48.732 24.6757 48.791 25.0181 48.7959C25.761 48.8063 26.506 48.8347 27.2451 48.7197C27.7152 48.6466 28.1905 48.5969 28.6541 48.4946C29.6923 48.2655 30.6936 47.9169 31.6542 47.4607C32.4833 47.067 33.2835 46.6212 34.0301 46.0809C34.7245 45.5782 35.3875 45.0412 35.9636 44.4038C36.2732 44.0612 36.5814 43.7162 36.8707 43.3565C37.3769 42.7269 37.8109 42.0468 38.1698 41.3233C38.4306 40.7974 38.6801 40.2633 38.8906 39.7158C39.0973 39.1783 39.2698 38.6251 39.4174 38.0682C39.548 37.5752 39.6395 37.0701 39.7188 36.5656C39.7867 36.1332 39.8337 35.695 39.8515 35.2577C39.8693 34.8201 39.847 34.3803 39.8278 33.942C39.8127 33.5972 39.7961 33.2501 39.7434 32.9097C39.6619 32.3827 39.5617 31.8578 39.4468 31.337C39.2403 30.401 38.9218 29.5005 38.5208 28.6314C38.158 27.8451 37.7334 27.0906 37.2138 26.3972C36.8549 25.9182 36.4795 25.4482 36.0755 25.0072C35.4976 24.3765 34.8662 23.7997 34.1791 23.2861C33.6329 22.8779 33.0679 22.4996 32.4643 22.1828C32.1022 21.9926 31.7359 21.8082 31.361 21.6453C30.9669 21.4739 30.5678 21.3065 30.1574 21.1819C29.5814 21.0071 28.9965 20.8572 28.4085 20.728C28.0054 20.6394 27.5912 20.5995 27.1809 20.5467C26.8932 20.5097 26.6035 20.4876 26.3068 20.4517C26.1475 20.432 25.9957 20.4061 25.8446 20.4099C25.5936 20.4162 25.3431 20.4416 25.0807 20.4607C25.0167 20.4718 24.9647 20.4839 24.912 20.49C24.5131 20.5361 24.1117 20.5659 23.7158 20.6299C23.208 20.712 22.6972 20.7935 22.2011 20.9259C21.5898 21.089 20.9869 21.2889 20.3903 21.5008C19.57 21.7921 18.8048 22.2017 18.0695 22.6656C17.3575 23.1149 16.6992 23.6365 16.0907 24.2169C15.7384 24.5528 15.3945 24.903 15.088 25.2804C14.6729 25.7916 14.2744 26.3198 13.9114 26.8691C13.5587 27.4028 13.2435 27.9634 12.9417 28.5283C12.5723 29.2197 12.2716 29.944 12.0689 30.7034C11.9442 31.1706 11.8368 31.6434 11.7451 32.1183C11.6784 32.4639 11.6395 32.816 11.6081 33.167C11.5815 33.4635 11.5835 33.7625 11.5628 34.0626C11.4273 34.4197 11.4553 34.7772 11.5366 35.1352C11.5382 35.1424 11.5603 35.145 11.5747 35.1624C11.6038 35.5645 11.6107 35.9567 11.6634 36.3426C11.735 36.8663 11.8376 37.386 11.9368 37.9055C11.9546 37.9991 11.9802 38.0811 11.8723 38.1156C11.7622 38.1509 11.6967 38.0868 11.6596 37.9838C11.6176 37.8671 11.5708 37.752 11.5244 37.6369C11.1724 36.7632 10.8708 35.8716 10.6578 34.9545C10.4952 34.2542 10.3658 33.5452 10.2478 32.8357C10.1687 32.3607 10.1363 31.8779 10.0798 31.399C10.0761 31.3671 10.0455 31.3383 10.0273 31.308Z" fill="#E82B2D"/>
<path d="M26.3147 20.4587C26.6035 20.4875 26.8932 20.5095 27.1809 20.5466C27.5912 20.5994 28.0054 20.6393 28.4085 20.7279C28.9965 20.8571 29.5814 21.007 30.1574 21.1818C30.5678 21.3063 30.9669 21.4738 31.361 21.6451C31.7359 21.8081 32.1022 21.9925 32.4643 22.1826C33.0679 22.4995 33.6329 22.8777 34.1791 23.286C34.8662 23.7996 35.4976 24.3764 36.0755 25.0071C36.4795 25.4481 36.8549 25.9181 37.2138 26.3971C37.7334 27.0905 38.158 27.845 38.5208 28.6313C38.9218 29.5004 39.2403 30.4009 39.4468 31.3369C39.5617 31.8577 39.6619 32.3826 39.7434 32.9096C39.7961 33.25 39.8127 33.5971 39.8278 33.9419C39.847 34.3802 39.8693 34.82 39.8515 35.2576C39.8337 35.6948 39.7867 36.133 39.7188 36.5655C39.6395 37.0699 39.548 37.5751 39.4174 38.0681C39.2698 38.625 39.0973 39.1782 38.8906 39.7157C38.6801 40.2631 38.4306 40.7973 38.1698 41.3232C37.8109 42.0467 37.3769 42.7268 36.8707 43.3564C36.5814 43.7161 36.2732 44.0611 35.9636 44.4037C35.3875 45.0411 34.7245 45.5781 34.0301 46.0807C33.2835 46.6211 32.4833 47.0669 31.6542 47.4606C30.6936 47.9167 29.6923 48.2654 28.6541 48.4945C28.1905 48.5967 27.7152 48.6464 27.2451 48.7196C26.506 48.8346 25.761 48.8062 25.0181 48.7957C24.6757 48.7909 24.3339 48.7319 23.9924 48.6922C23.8115 48.6711 23.6316 48.6402 23.4517 48.6111C23.3356 48.5923 23.2693 48.6468 23.2455 48.753C23.2216 48.8598 23.2701 48.9093 23.3792 48.9408C23.7284 49.0414 24.0699 49.1697 24.4206 49.264C24.998 49.4192 25.5776 49.5684 26.1615 49.6966C26.5862 49.7899 27.0184 49.8517 27.4491 49.915C27.6745 49.9482 27.9039 49.9535 28.1313 49.9738C28.164 49.9768 28.1955 49.9939 28.2233 50.0158C22.1571 50.0273 16.0952 50.0273 10.0273 50.0273C10.0273 43.796 10.0273 37.5647 10.0273 31.3207C10.0455 31.3382 10.0761 31.3669 10.0798 31.3989C10.1363 31.8778 10.1687 32.3606 10.2478 32.8356C10.3658 33.5451 10.4952 34.2541 10.6578 34.9544C10.8708 35.8715 11.1724 36.7631 11.5244 37.6367C11.5708 37.7519 11.6176 37.8669 11.6596 37.9837C11.6967 38.0867 11.7622 38.1508 11.8723 38.1155C11.9802 38.0809 11.9546 37.9989 11.9368 37.9054C11.8376 37.3859 11.735 36.8662 11.6634 36.3425C11.6107 35.9565 11.6038 35.5643 11.5766 35.1496C11.5754 34.7696 11.5741 34.4149 11.5728 34.0602C11.5835 33.7623 11.5815 33.4633 11.6081 33.1669C11.6395 32.8159 11.6784 32.4638 11.7451 32.1182C11.8368 31.6433 11.9442 31.1705 12.0689 30.7033C12.2716 29.9439 12.5723 29.2196 12.9417 28.5282C13.2435 27.9633 13.5587 27.4026 13.9114 26.8689C14.2744 26.3197 14.6729 25.7915 15.088 25.2803C15.3945 24.9029 15.7384 24.5527 16.0907 24.2168C16.6992 23.6364 17.3575 23.1147 18.0695 22.6655C18.8048 22.2016 19.57 21.792 20.3903 21.5007C20.9869 21.2888 21.5898 21.0889 22.2011 20.9257C22.6972 20.7933 23.208 20.7119 23.7158 20.6298C24.1117 20.5658 24.5131 20.536 24.912 20.4899C24.9647 20.4838 25.0167 20.4717 25.0934 20.4625C25.5167 20.4613 25.9157 20.46 26.3147 20.4587ZM14.1464 40.517C14.2253 40.7483 14.3033 40.9798 14.3833 41.2107C14.498 41.5414 14.7498 41.7664 14.9961 41.9927C15.3369 42.3059 15.6852 42.6107 16.0284 42.9213C16.342 43.2052 16.6539 43.4911 16.9649 43.7778C17.3293 44.1136 17.6932 44.4499 18.0549 44.7887C18.3909 45.1034 18.7133 45.4335 19.0616 45.7336C19.2623 45.9065 19.4882 46.0653 19.7285 46.1726C20.0009 46.2944 20.2977 46.3747 20.5919 46.4311C20.9852 46.5065 21.3849 46.5682 21.7841 46.5869C22.2387 46.6083 22.6973 46.5955 23.1513 46.5609C23.5362 46.5316 23.9218 46.4713 24.2989 46.3874C25.102 46.2087 25.8608 45.9069 26.577 45.4985C27.2132 45.1357 27.7956 44.6994 28.3163 44.1868C28.5938 43.9136 28.8384 43.6063 29.0904 43.3079C29.4667 42.8624 29.7682 42.3645 30.0101 41.8377C30.2209 41.3784 30.3976 40.9006 30.5529 40.4192C30.7706 39.7441 30.8713 39.0415 30.8762 38.3344C30.8797 37.8284 30.8374 37.3184 30.7679 36.8168C30.706 36.3694 30.5944 35.9268 30.4765 35.4897C30.3109 34.8752 30.0365 34.3043 29.7233 33.7517C29.4316 33.2369 29.0956 32.7521 28.6926 32.3212C28.391 31.9988 28.0629 31.6995 27.7301 31.4089C27.3535 31.0801 26.9336 30.8094 26.4948 30.5694C25.7722 30.1741 25.0102 29.8831 24.206 29.7059C23.6946 29.5932 23.1763 29.5269 22.6534 29.5126C22.3655 29.5047 22.0767 29.5375 21.7884 29.5345C21.3285 29.5298 20.878 29.6054 20.4355 29.709C19.663 29.8898 18.9227 30.1632 18.2234 30.5476C17.5086 30.9405 16.8733 31.4359 16.2886 31.9994C16.1338 32.1486 16.0015 32.3209 15.8578 32.4817C15.4634 32.9233 15.135 33.4122 14.8528 33.9303C14.5431 34.499 14.2996 35.0958 14.1175 35.7198C13.9042 36.4508 13.8082 37.1977 13.7849 37.9539C13.774 38.3083 13.7888 38.6685 13.8413 39.0188C13.9156 39.5152 14.0355 40.0048 14.1464 40.517Z" fill="black"/>
<path d="M49.973 29.4779C49.9368 28.9901 49.9085 28.5015 49.8623 28.0146C49.818 27.5478 49.7718 27.08 49.6958 26.6176C49.6203 26.1579 49.5229 25.7002 49.4057 25.2493C49.2473 24.6397 49.0863 24.0287 48.8795 23.4346C48.6695 22.8314 48.4164 22.2419 48.1575 21.6574C47.6962 20.616 47.1197 19.6377 46.4661 18.7068C46.1463 18.2513 45.8013 17.8132 45.46 17.3732C44.9419 16.7056 44.3552 16.0991 43.7419 15.5212C43.3352 15.1379 42.907 14.7745 42.4653 14.4322C41.924 14.0127 41.3689 13.6091 40.8001 13.228C40.3652 12.9366 39.9033 12.6846 39.4471 12.4263C38.7454 12.0289 38.0146 11.689 37.257 11.4163C36.5446 11.1598 35.8215 10.9316 35.0965 10.713C34.6942 10.5917 34.2806 10.5044 33.868 10.4223C33.4977 10.3487 33.1228 10.2955 32.7481 10.2473C32.3277 10.1931 31.9054 10.1525 31.4834 10.111C31.3757 10.1005 31.2661 10.109 31.1383 10.0987C31.0587 10.0863 30.9976 10.0882 30.9381 10.0792C30.9178 10.0761 30.9018 10.0454 30.8838 10.0273C37.263 10.0273 43.6421 10.0273 50.0272 10.0273C50.0272 16.5038 50.0272 22.9803 50.0201 29.4787C49.9996 29.493 49.9863 29.4855 49.973 29.4779Z" fill="black"/>
<path d="M28.9 10.1136C28.5429 10.1389 28.1856 10.1626 27.8287 10.19C27.6326 10.2051 27.4363 10.2212 27.2413 10.2461C26.9192 10.2873 26.5942 10.3184 26.2771 10.3854C25.6964 10.5079 25.1129 10.628 24.5445 10.7961C23.8994 10.9868 23.2584 11.2018 22.636 11.4564C21.9699 11.729 21.3116 12.0304 20.679 12.3733C19.969 12.7582 19.2807 13.1868 18.6037 13.6284C18.1536 13.922 17.7354 14.2658 17.311 14.5977C16.6853 15.0869 16.1081 15.632 15.5677 16.2127C15.1682 16.6419 14.7882 17.0909 14.4228 17.5497C14.0791 17.9813 13.7468 18.4247 13.4445 18.8859C13.0962 19.4174 12.7722 19.9663 12.4626 20.5216C11.8104 21.691 11.271 22.9122 10.9001 24.2007C10.7113 24.8569 10.559 25.5244 10.4117 26.1915C10.3178 26.6169 10.2557 27.05 10.1941 27.4817C10.1524 27.774 10.1382 28.0702 10.1081 28.3642C10.0929 28.5131 10.0697 28.6612 10.0388 28.8054C10.0273 22.5452 10.0273 16.2892 10.0273 10.0273C16.4 10.0273 22.7726 10.0273 29.1649 10.0374C29.1071 10.067 29.0297 10.0865 28.9436 10.1073C28.9232 10.1103 28.9116 10.112 28.9 10.1136Z" fill="black"/>
<path d="M31.6851 50.0273C31.6934 50.0092 31.7131 49.9774 31.7359 49.9751C32.0293 49.9445 32.3249 49.9308 32.6163 49.8879C33.0644 49.8219 33.5133 49.7533 33.9552 49.6557C34.6082 49.5115 35.2602 49.358 35.9035 49.176C36.3931 49.0375 36.8768 48.8691 37.3479 48.6767C37.9644 48.4248 38.5763 48.1568 39.1715 47.8585C40.0469 47.4198 40.8805 46.9062 41.6654 46.3186C42.058 46.0247 42.4522 45.7298 42.818 45.4042C43.3969 44.8891 43.9674 44.3626 44.5129 43.8125C44.9034 43.4186 45.2496 42.9802 45.6113 42.558C46.1167 41.9681 46.5572 41.33 46.9718 40.6745C47.1905 40.3288 47.4015 39.9769 47.5915 39.6149C47.8522 39.1179 48.1067 38.6161 48.3333 38.1029C48.6762 37.3269 48.9717 36.531 49.1827 35.7077C49.3446 35.0758 49.4954 34.4407 49.6348 33.8034C49.7032 33.4907 49.7383 33.1703 49.7815 32.8524C49.8307 32.4896 49.8734 32.1259 49.9162 31.7623C49.9303 31.642 49.9395 31.5209 49.9447 31.3999C49.9562 31.1339 49.9637 30.8677 49.9832 30.5842C50.0048 30.5686 50.016 30.5704 50.0272 30.5722C50.0272 37.0552 50.0272 43.5382 50.0272 50.0273C43.9174 50.0273 37.8076 50.0273 31.6851 50.0273Z" fill="black"/>
<path d="M28.9521 10.106C29.0296 10.0865 29.107 10.067 29.1775 10.0374C29.7332 10.0273 30.2957 10.0273 30.871 10.0273C30.9018 10.0454 30.9178 10.0761 30.9381 10.0792C30.9976 10.0882 31.0587 10.0863 31.1259 10.0983C31.0891 10.1165 31.0457 10.1323 31.0023 10.1324C30.3287 10.1336 29.6552 10.1327 28.968 10.1255C28.9544 10.1187 28.9521 10.106 28.9521 10.106Z" fill="#E82B2D"/>
<path d="M50.027 30.5594C50.0158 30.5703 50.0046 30.5685 49.9831 30.5717C49.9642 30.5618 49.9482 30.547 49.9482 30.5322C49.9493 30.1858 49.952 29.8394 49.9636 29.4854C49.9861 29.4853 49.9994 29.4928 50.0198 29.4913C50.027 29.837 50.027 30.1918 50.027 30.5594Z" fill="#E82B2D"/>
<path d="M11.5626 34.0625C11.574 34.415 11.5753 34.7697 11.5746 35.137C11.5602 35.1449 11.5381 35.1423 11.5364 35.1351C11.4552 34.7772 11.4272 34.4197 11.5626 34.0625Z" fill="#E82B2D"/>
<path d="M26.3068 20.4516C25.9157 20.4601 25.5166 20.4614 25.105 20.4607C25.3431 20.4415 25.5936 20.4161 25.8446 20.4098C25.9956 20.406 26.1474 20.4319 26.3068 20.4516Z" fill="#E82B2D"/>
<path d="M28.9435 10.1073C28.9522 10.1059 28.9545 10.1187 28.9556 10.125C28.9416 10.1289 28.9266 10.1264 28.9058 10.1187C28.9116 10.1119 28.9232 10.1103 28.9435 10.1073Z" fill="#E82B2D"/>
<path d="M14.1408 40.5071C14.0352 40.0047 13.9154 39.5151 13.841 39.0186C13.7886 38.6684 13.7737 38.3082 13.7846 37.9537C13.8079 37.1976 13.904 36.4507 14.1172 35.7197C14.2993 35.0957 14.5428 34.4989 14.8525 33.9302C15.1347 33.4121 15.4631 32.9232 15.8575 32.4816C16.0012 32.3208 16.1335 32.1484 16.2883 31.9993C16.873 31.4357 17.5083 30.9403 18.2231 30.5475C18.9225 30.1631 19.6627 29.8897 20.4352 29.7089C20.8777 29.6053 21.3283 29.5297 21.7882 29.5344C22.0764 29.5373 22.3652 29.5046 22.6531 29.5125C23.176 29.5268 23.6944 29.5931 24.2057 29.7058C25.01 29.883 25.7719 30.174 26.4945 30.5693C26.9333 30.8093 27.3532 31.08 27.7298 31.4088C28.0626 31.6994 28.3908 31.9987 28.6923 32.3211C29.0953 32.7519 29.4313 33.2368 29.723 33.7515C30.0362 34.3042 30.3106 34.8751 30.4762 35.4895C30.5941 35.9267 30.7057 36.3693 30.7676 36.8167C30.8371 37.3183 30.8794 37.8283 30.8759 38.3342C30.8711 39.0414 30.7703 39.7439 30.5526 40.419C30.3973 40.9005 30.2206 41.3783 30.0098 41.8376C29.768 42.3644 29.4664 42.8623 29.0901 43.3078C28.8381 43.6061 28.5935 43.9135 28.316 44.1867C27.7953 44.6993 27.2129 45.1356 26.5768 45.4983C25.8605 45.9068 25.1018 46.2086 24.2986 46.3873C23.9216 46.4712 23.5359 46.5315 23.1511 46.5608C22.697 46.5953 22.2384 46.6082 21.7839 46.5868C21.3846 46.5681 20.9849 46.5064 20.5916 46.431C20.2974 46.3746 20.0006 46.2943 19.7282 46.1725C19.4879 46.0652 19.262 45.9064 19.0614 45.7335C18.7131 45.4333 18.3906 45.1032 18.0546 44.7886C17.693 44.4498 17.329 44.1135 16.9646 43.7777C16.6536 43.491 16.3417 43.2051 16.0281 42.9212C15.6849 42.6106 15.3366 42.3057 14.9958 41.9926C14.7495 41.7662 14.4977 41.5413 14.383 41.2106C14.303 40.9797 14.225 40.7482 14.1408 40.5071Z" fill="#B08E2C"/>
</g>
<defs>
<clipPath id="clip0_1772_9537">
<rect width="40" height="40" fill="white" transform="translate(10 10)"/>
</clipPath>
</defs>
</svg>