<svg width="60" height="60" viewBox="0 0 60 60" fill="none" xmlns="http://www.w3.org/2000/svg">
<rect width="60" height="60" fill="#88BFE6"/>
<g clip-path="url(#clip0_168_291)">
<path d="M32.8011 50.979C33.4736 51.0238 34.1482 50.9309 34.7831 50.7059C35.4181 50.4809 35.9998 50.1287 36.4924 49.6711C36.985 49.2135 37.378 48.6602 37.647 48.0454C37.9159 47.4306 38.0552 46.7675 38.0562 46.097C38.0571 45.4265 37.9198 44.763 37.6526 44.1474C37.3854 43.5319 36.994 42.9774 36.5027 42.5184C36.0114 42.0594 35.4307 41.7055 34.7964 41.4788C34.1621 41.252 33.4878 41.1571 32.8152 41.2C31.5087 41.2 30.2558 41.7163 29.3321 42.6352C28.4083 43.5541 27.8893 44.8004 27.8893 46.1C27.8893 47.3996 28.4083 48.6459 29.3321 49.5648C30.2558 50.4838 31.5087 51 32.8152 51L32.8011 50.979ZM25.4968 44.588C26.9886 43.216 26.7634 40.584 24.976 38.708C23.1887 36.846 20.5287 36.44 19.0228 37.812C17.531 39.184 17.7562 41.816 19.5435 43.692C21.3309 45.554 23.9909 45.96 25.4968 44.588Z" fill="#0168A9"/>
<path d="M48.0149 41.627C49.5208 39.562 49.2675 37.056 47.466 36.034C45.6786 35.012 43.0187 35.866 41.5269 37.952C40.035 40.038 40.2884 42.544 42.0898 43.566C43.8772 44.588 46.5371 43.734 48.029 41.648L48.0149 41.627Z" fill="white"/>
<path d="M22.2879 31.505C22.3723 29.244 21.0072 27.34 19.2479 27.298C17.4887 27.242 16.011 29.048 15.9406 31.33C15.8702 33.626 17.2354 35.516 18.9946 35.572C20.7538 35.614 22.2316 33.808 22.302 31.512L22.2879 31.505Z" fill="#0168A9"/>
<path d="M47.297 31.183C48.9718 30.56 49.4925 28.544 48.4792 26.724C47.4659 24.904 45.2985 23.952 43.6519 24.596C41.9912 25.24 41.4704 27.256 42.4837 29.076C43.4971 30.896 45.6644 31.848 47.3111 31.204L47.297 31.183Z" fill="white"/>
<path d="M25.173 24.701C26.496 23.49 26.876 21.74 26.0315 20.788C25.1871 19.836 23.456 20.06 22.1472 21.278C20.8383 22.51 20.4583 24.26 21.3027 25.212C22.1472 26.164 23.8783 25.94 25.1871 24.722L25.173 24.701Z" fill="#0168A9"/>
<path d="M40.2321 21.019C40.9498 20.228 40.415 18.912 39.0358 18.058C37.6565 17.218 35.9536 17.176 35.2358 17.974C34.5322 18.772 35.067 20.088 36.4462 20.942C37.8254 21.782 39.5284 21.824 40.2461 21.026L40.2321 21.019Z" fill="white"/>
<path d="M30.6196 18.499C31.7455 18.058 32.3648 17.176 32.0129 16.56C31.6611 15.944 30.4789 15.818 29.3671 16.28C28.2552 16.742 27.636 17.624 27.9878 18.24C28.3397 18.856 29.5219 18.982 30.6337 18.52L30.6196 18.499ZM37.4877 15.832C38.6276 15.482 39.3454 14.628 39.0921 13.942C38.8528 13.27 37.7269 13.004 36.5869 13.354C35.447 13.718 34.7292 14.572 34.9825 15.258C35.2218 15.93 36.3477 16.196 37.4877 15.832ZM44.1868 14.572C45.3549 14.432 46.2416 13.718 46.1853 12.962C46.1149 12.192 45.1297 11.688 43.9616 11.828C42.7935 11.968 41.9068 12.682 41.9631 13.438C42.0335 14.208 43.0187 14.712 44.1868 14.572Z" fill="#0168A9"/>
<path d="M29.2262 13.879C29.5218 13.242 28.8181 12.388 27.6922 11.996C26.5663 11.604 25.4122 11.828 25.1307 12.486C24.8493 13.158 25.553 14.026 26.6789 14.404C27.8048 14.796 28.9588 14.572 29.2403 13.914L29.2262 13.879ZM22.2878 12.15C22.4286 11.45 21.5701 10.708 20.3879 10.512C19.2057 10.316 18.1361 10.736 17.9953 11.45C17.8827 12.15 18.7272 12.892 19.9094 13.088C21.0916 13.284 22.1612 12.864 22.3019 12.15H22.2878ZM13.168 13.2C14.3361 13.158 15.2509 12.5 15.2228 11.716C15.1946 10.946 14.2095 10.358 13.0554 10.4C11.8873 10.442 10.9725 11.1 11.0006 11.884C11.0288 12.654 12.0139 13.242 13.168 13.2Z" fill="white"/>
</g>
<defs>
<clipPath id="clip0_168_291">
<rect width="38" height="42" fill="white" transform="translate(11 9)"/>
</clipPath>
</defs>
</svg>