<svg xmlns="http://www.w3.org/2000/svg" viewBox="0 0 128 128" role="img" aria-label="Pantessa">
  <rect width="128" height="128" fill="#000000"/>
  <g transform="translate(64 64) scale(0.76) translate(-64 -64)">
  <circle cx="64" cy="64" r="58" fill="none" stroke="#FFFFFF" stroke-width="1.35"/>
  <circle cx="64" cy="64" r="55.5" fill="none" stroke="#FFFFFF" stroke-width="0.83" opacity="0.65"/>
  <path d="M 113.00,64.00 L 115.84,66.33 L 117.15,68.78 L 116.20,71.07 L 113.36,72.96 L 109.91,74.48 L 107.33,75.96 L 106.62,77.85 L 107.76,80.42 L 109.78,83.57 L 111.25,86.75 L 111.02,89.30 L 108.79,90.76 L 105.22,91.21 L 101.55,91.28 L 98.96,91.88 L 97.98,93.69 L 98.30,96.79 L 98.93,100.53 L 98.79,103.82 L 97.23,105.66 L 94.32,105.73 L 90.78,104.56 L 87.50,103.33 L 85.14,103.28 L 83.77,105.05 L 82.95,108.33 L 82.01,111.99 L 80.43,114.58 L 78.11,115.13 L 75.33,113.63 L 72.54,111.06 L 70.08,108.92 L 68.00,108.46 L 66.07,110.06 L 64.00,113.00 L 61.67,115.84 L 59.22,117.15 L 56.93,116.20 L 55.04,113.36 L 53.52,109.91 L 52.04,107.33 L 50.15,106.62 L 47.58,107.76 L 44.43,109.78 L 41.25,111.25 L 38.70,111.02 L 37.24,108.79 L 36.79,105.22 L 36.72,101.55 L 36.12,98.96 L 34.31,97.98 L 31.21,98.30 L 27.47,98.93 L 24.18,98.79 L 22.34,97.23 L 22.27,94.32 L 23.44,90.78 L 24.67,87.50 L 24.72,85.14 L 22.95,83.77 L 19.67,82.95 L 16.01,82.01 L 13.42,80.43 L 12.87,78.11 L 14.37,75.33 L 16.94,72.54 L 19.08,70.08 L 19.54,68.00 L 17.94,66.07 L 15.00,64.00 L 12.16,61.67 L 10.85,59.22 L 11.80,56.93 L 14.64,55.04 L 18.09,53.52 L 20.67,52.04 L 21.38,50.15 L 20.24,47.58 L 18.22,44.43 L 16.75,41.25 L 16.98,38.70 L 19.21,37.24 L 22.78,36.79 L 26.45,36.72 L 29.04,36.12 L 30.02,34.31 L 29.70,31.21 L 29.07,27.47 L 29.21,24.18 L 30.77,22.34 L 33.68,22.27 L 37.22,23.44 L 40.50,24.67 L 42.86,24.72 L 44.23,22.95 L 45.05,19.67 L 45.99,16.01 L 47.57,13.42 L 49.89,12.87 L 52.67,14.37 L 55.46,16.94 L 57.92,19.08 L 60.00,19.54 L 61.93,17.94 L 64.00,15.00 L 66.33,12.16 L 68.78,10.85 L 71.07,11.80 L 72.96,14.64 L 74.48,18.09 L 75.96,20.67 L 77.85,21.38 L 80.42,20.24 L 83.57,18.22 L 86.75,16.75 L 89.30,16.98 L 90.76,19.21 L 91.21,22.78 L 91.28,26.45 L 91.88,29.04 L 93.69,30.02 L 96.79,29.70 L 100.53,29.07 L 103.82,29.21 L 105.66,30.77 L 105.73,33.68 L 104.56,37.22 L 103.33,40.50 L 103.28,42.86 L 105.05,44.23 L 108.33,45.05 L 111.99,45.99 L 114.58,47.57 L 115.13,49.89 L 113.63,52.67 L 111.06,55.46 L 108.92,57.92 L 108.46,60.00 L 110.06,61.93 L 113.00,64.00 Z" fill="none" stroke="#FFFFFF" stroke-width="1.50" opacity="0.9"/>
  <path d="M 117.40,64.00 L 116.26,66.35 L 113.39,68.45 L 110.15,70.25 L 108.04,71.99 L 107.91,74.02 L 109.57,76.58 L 111.89,79.56 L 113.41,82.54 L 113.04,84.96 L 110.62,86.45 L 106.98,87.13 L 103.45,87.57 L 101.24,88.58 L 100.76,90.71 L 101.54,93.94 L 102.47,97.61 L 102.39,100.71 L 100.71,102.39 L 97.61,102.47 L 93.94,101.54 L 90.71,100.76 L 88.58,101.24 L 87.57,103.45 L 87.13,106.98 L 86.45,110.62 L 84.96,113.04 L 82.54,113.41 L 79.56,111.89 L 76.58,109.57 L 74.02,107.91 L 71.99,108.04 L 70.25,110.15 L 68.45,113.39 L 66.35,116.26 L 64.00,117.40 L 61.65,116.26 L 59.55,113.39 L 57.75,110.15 L 56.01,108.04 L 53.98,107.91 L 51.42,109.57 L 48.44,111.89 L 45.46,113.41 L 43.04,113.04 L 41.55,110.62 L 40.87,106.98 L 40.43,103.45 L 39.42,101.24 L 37.29,100.76 L 34.06,101.54 L 30.39,102.47 L 27.29,102.39 L 25.61,100.71 L 25.53,97.61 L 26.46,93.94 L 27.24,90.71 L 26.76,88.58 L 24.55,87.57 L 21.02,87.13 L 17.38,86.45 L 14.96,84.96 L 14.59,82.54 L 16.11,79.56 L 18.43,76.58 L 20.09,74.02 L 19.96,71.99 L 17.85,70.25 L 14.61,68.45 L 11.74,66.35 L 10.60,64.00 L 11.74,61.65 L 14.61,59.55 L 17.85,57.75 L 19.96,56.01 L 20.09,53.98 L 18.43,51.42 L 16.11,48.44 L 14.59,45.46 L 14.96,43.04 L 17.38,41.55 L 21.02,40.87 L 24.55,40.43 L 26.76,39.42 L 27.24,37.29 L 26.46,34.06 L 25.53,30.39 L 25.61,27.29 L 27.29,25.61 L 30.39,25.53 L 34.06,26.46 L 37.29,27.24 L 39.42,26.76 L 40.43,24.55 L 40.87,21.02 L 41.55,17.38 L 43.04,14.96 L 45.46,14.59 L 48.44,16.11 L 51.42,18.43 L 53.98,20.09 L 56.01,19.96 L 57.75,17.85 L 59.55,14.61 L 61.65,11.74 L 64.00,10.60 L 66.35,11.74 L 68.45,14.61 L 70.25,17.85 L 71.99,19.96 L 74.02,20.09 L 76.58,18.43 L 79.56,16.11 L 82.54,14.59 L 84.96,14.96 L 86.45,17.38 L 87.13,21.02 L 87.57,24.55 L 88.58,26.76 L 90.71,27.24 L 93.94,26.46 L 97.61,25.53 L 100.71,25.61 L 102.39,27.29 L 102.47,30.39 L 101.54,34.06 L 100.76,37.29 L 101.24,39.42 L 103.45,40.43 L 106.98,40.87 L 110.62,41.55 L 113.04,43.04 L 113.41,45.46 L 111.89,48.44 L 109.57,51.42 L 107.91,53.98 L 108.04,56.01 L 110.15,57.75 L 113.39,59.55 L 116.26,61.65 L 117.40,64.00 Z" fill="none" stroke="#FFFFFF" stroke-width="1.50" opacity="0.9"/>
  <path d="M 113.00,64.00 L 110.06,66.07 L 108.46,68.00 L 108.92,70.08 L 111.06,72.54 L 113.63,75.33 L 115.13,78.11 L 114.58,80.43 L 111.99,82.01 L 108.33,82.95 L 105.05,83.77 L 103.28,85.14 L 103.33,87.50 L 104.56,90.78 L 105.73,94.32 L 105.66,97.23 L 103.82,98.79 L 100.53,98.93 L 96.79,98.30 L 93.69,97.98 L 91.88,98.96 L 91.28,101.55 L 91.21,105.22 L 90.76,108.79 L 89.30,111.02 L 86.75,111.25 L 83.57,109.78 L 80.42,107.76 L 77.85,106.62 L 75.96,107.33 L 74.48,109.91 L 72.96,113.36 L 71.07,116.20 L 68.78,117.15 L 66.33,115.84 L 64.00,113.00 L 61.93,110.06 L 60.00,108.46 L 57.92,108.92 L 55.46,111.06 L 52.67,113.63 L 49.89,115.13 L 47.57,114.58 L 45.99,111.99 L 45.05,108.33 L 44.23,105.05 L 42.86,103.28 L 40.50,103.33 L 37.22,104.56 L 33.68,105.73 L 30.77,105.66 L 29.21,103.82 L 29.07,100.53 L 29.70,96.79 L 30.02,93.69 L 29.04,91.88 L 26.45,91.28 L 22.78,91.21 L 19.21,90.76 L 16.98,89.30 L 16.75,86.75 L 18.22,83.57 L 20.24,80.42 L 21.38,77.85 L 20.67,75.96 L 18.09,74.48 L 14.64,72.96 L 11.80,71.07 L 10.85,68.78 L 12.16,66.33 L 15.00,64.00 L 17.94,61.93 L 19.54,60.00 L 19.08,57.92 L 16.94,55.46 L 14.37,52.67 L 12.87,49.89 L 13.42,47.57 L 16.01,45.99 L 19.67,45.05 L 22.95,44.23 L 24.72,42.86 L 24.67,40.50 L 23.44,37.22 L 22.27,33.68 L 22.34,30.77 L 24.18,29.21 L 27.47,29.07 L 31.21,29.70 L 34.31,30.02 L 36.12,29.04 L 36.72,26.45 L 36.79,22.78 L 37.24,19.21 L 38.70,16.98 L 41.25,16.75 L 44.43,18.22 L 47.58,20.24 L 50.15,21.38 L 52.04,20.67 L 53.52,18.09 L 55.04,14.64 L 56.93,11.80 L 59.22,10.85 L 61.67,12.16 L 64.00,15.00 L 66.07,17.94 L 68.00,19.54 L 70.08,19.08 L 72.54,16.94 L 75.33,14.37 L 78.11,12.87 L 80.43,13.42 L 82.01,16.01 L 82.95,19.67 L 83.77,22.95 L 85.14,24.72 L 87.50,24.67 L 90.78,23.44 L 94.32,22.27 L 97.23,22.34 L 98.79,24.18 L 98.93,27.47 L 98.30,31.21 L 97.98,34.31 L 98.96,36.12 L 101.55,36.72 L 105.22,36.79 L 108.79,37.24 L 111.02,38.70 L 111.25,41.25 L 109.78,44.43 L 107.76,47.58 L 106.62,50.15 L 107.33,52.04 L 109.91,53.52 L 113.36,55.04 L 116.20,56.93 L 117.15,59.22 L 115.84,61.67 L 113.00,64.00 Z" fill="none" stroke="#FFFFFF" stroke-width="1.50" opacity="0.9"/>
  <path d="M 108.60,64.00 L 109.64,66.05 L 112.21,68.34 L 114.96,70.90 L 116.39,73.51 L 115.64,75.79 L 112.90,77.50 L 109.31,78.72 L 106.34,79.89 L 105.08,81.56 L 105.68,84.07 L 107.32,87.31 L 108.67,90.69 L 108.55,93.41 L 106.52,94.89 L 103.08,95.16 L 99.33,94.87 L 96.44,95.02 L 95.02,96.44 L 94.87,99.33 L 95.16,103.08 L 94.89,106.52 L 93.41,108.55 L 90.69,108.67 L 87.31,107.32 L 84.07,105.68 L 81.56,105.08 L 79.89,106.34 L 78.72,109.31 L 77.50,112.90 L 75.79,115.64 L 73.51,116.39 L 70.90,114.96 L 68.34,112.21 L 66.05,109.64 L 64.00,108.60 L 61.95,109.64 L 59.66,112.21 L 57.10,114.96 L 54.49,116.39 L 52.21,115.64 L 50.50,112.90 L 49.28,109.31 L 48.11,106.34 L 46.44,105.08 L 43.93,105.68 L 40.69,107.32 L 37.31,108.67 L 34.59,108.55 L 33.11,106.52 L 32.84,103.08 L 33.13,99.33 L 32.98,96.44 L 31.56,95.02 L 28.67,94.87 L 24.92,95.16 L 21.48,94.89 L 19.45,93.41 L 19.33,90.69 L 20.68,87.31 L 22.32,84.07 L 22.92,81.56 L 21.66,79.89 L 18.69,78.72 L 15.10,77.50 L 12.36,75.79 L 11.61,73.51 L 13.04,70.90 L 15.79,68.34 L 18.36,66.05 L 19.40,64.00 L 18.36,61.95 L 15.79,59.66 L 13.04,57.10 L 11.61,54.49 L 12.36,52.21 L 15.10,50.50 L 18.69,49.28 L 21.66,48.11 L 22.92,46.44 L 22.32,43.93 L 20.68,40.69 L 19.33,37.31 L 19.45,34.59 L 21.48,33.11 L 24.92,32.84 L 28.67,33.13 L 31.56,32.98 L 32.98,31.56 L 33.13,28.67 L 32.84,24.92 L 33.11,21.48 L 34.59,19.45 L 37.31,19.33 L 40.69,20.68 L 43.93,22.32 L 46.44,22.92 L 48.11,21.66 L 49.28,18.69 L 50.50,15.10 L 52.21,12.36 L 54.49,11.61 L 57.10,13.04 L 59.66,15.79 L 61.95,18.36 L 64.00,19.40 L 66.05,18.36 L 68.34,15.79 L 70.90,13.04 L 73.51,11.61 L 75.79,12.36 L 77.50,15.10 L 78.72,18.69 L 79.89,21.66 L 81.56,22.92 L 84.07,22.32 L 87.31,20.68 L 90.69,19.33 L 93.41,19.45 L 94.89,21.48 L 95.16,24.92 L 94.87,28.67 L 95.02,31.56 L 96.44,32.98 L 99.33,33.13 L 103.08,32.84 L 106.52,33.11 L 108.55,34.59 L 108.67,37.31 L 107.32,40.69 L 105.68,43.93 L 105.08,46.44 L 106.34,48.11 L 109.31,49.28 L 112.90,50.50 L 115.64,52.21 L 116.39,54.49 L 114.96,57.10 L 112.21,59.66 L 109.64,61.95 L 108.60,64.00 Z" fill="none" stroke="#FFFFFF" stroke-width="1.50" opacity="0.9"/>
  <path d="M 99.50,64.00 L 102.06,65.71 L 104.11,67.61 L 105.30,69.59 L 105.42,71.52 L 104.41,73.22 L 102.41,74.60 L 99.70,75.60 L 96.68,76.27 L 93.77,76.72 L 91.34,77.16 L 89.66,77.81 L 88.86,78.85 L 88.90,80.44 L 89.58,82.59 L 90.61,85.22 L 91.62,88.13 L 92.29,91.05 L 92.34,93.64 L 91.63,95.62 L 90.15,96.79 L 88.00,97.04 L 85.42,96.45 L 82.66,95.24 L 79.99,93.71 L 77.62,92.28 L 75.67,91.30 L 74.16,91.08 L 73.03,91.79 L 72.12,93.43 L 71.26,95.82 L 70.29,98.64 L 69.08,101.48 L 67.59,103.90 L 65.86,105.53 L 64.00,106.10 L 62.14,105.53 L 60.41,103.90 L 58.92,101.48 L 57.71,98.64 L 56.74,95.82 L 55.88,93.43 L 54.97,91.79 L 53.84,91.08 L 52.33,91.30 L 50.38,92.28 L 48.01,93.71 L 45.34,95.24 L 42.58,96.45 L 40.00,97.04 L 37.85,96.79 L 36.37,95.62 L 35.66,93.64 L 35.71,91.05 L 36.38,88.13 L 37.39,85.22 L 38.42,82.59 L 39.10,80.44 L 39.14,78.85 L 38.34,77.81 L 36.66,77.16 L 34.23,76.72 L 31.32,76.27 L 28.30,75.60 L 25.59,74.60 L 23.59,73.22 L 22.58,71.52 L 22.70,69.59 L 23.89,67.61 L 25.94,65.71 L 28.50,64.00 L 31.13,62.52 L 33.39,61.25 L 34.94,60.06 L 35.56,58.84 L 35.19,57.42 L 33.97,55.71 L 32.18,53.66 L 30.21,51.32 L 28.48,48.82 L 27.37,46.36 L 27.14,44.16 L 27.91,42.44 L 29.64,41.32 L 32.14,40.85 L 35.10,40.95 L 38.15,41.42 L 40.97,41.98 L 43.27,42.32 L 44.92,42.16 L 45.88,41.28 L 46.27,39.60 L 46.31,37.20 L 46.25,34.29 L 46.35,31.19 L 46.81,28.31 L 47.76,26.01 L 49.22,24.61 L 51.09,24.27 L 53.23,24.99 L 55.46,26.60 L 57.61,28.78 L 59.55,31.12 L 61.23,33.19 L 62.68,34.60 L 64.00,35.10 L 65.32,34.60 L 66.77,33.19 L 68.45,31.12 L 70.39,28.78 L 72.54,26.60 L 74.77,24.99 L 76.91,24.27 L 78.78,24.61 L 80.24,26.01 L 81.19,28.31 L 81.65,31.19 L 81.75,34.29 L 81.69,37.20 L 81.73,39.60 L 82.12,41.28 L 83.08,42.16 L 84.73,42.32 L 87.03,41.98 L 89.85,41.42 L 92.90,40.95 L 95.86,40.85 L 98.36,41.32 L 100.09,42.44 L 100.86,44.16 L 100.63,46.36 L 99.52,48.82 L 97.79,51.32 L 95.82,53.66 L 94.03,55.71 L 92.81,57.42 L 92.44,58.84 L 93.06,60.06 L 94.61,61.25 L 96.87,62.52 L 99.50,64.00 Z" fill="none" stroke="#FFFFFF" stroke-width="1.72" opacity="0.95"/>
  <path d="M 106.10,64.00 L 105.53,65.86 L 103.90,67.59 L 101.48,69.08 L 98.64,70.29 L 95.82,71.26 L 93.43,72.12 L 91.79,73.03 L 91.08,74.16 L 91.30,75.67 L 92.28,77.62 L 93.71,79.99 L 95.24,82.66 L 96.45,85.42 L 97.04,88.00 L 96.79,90.15 L 95.62,91.63 L 93.64,92.34 L 91.05,92.29 L 88.13,91.62 L 85.22,90.61 L 82.59,89.58 L 80.44,88.90 L 78.85,88.86 L 77.81,89.66 L 77.16,91.34 L 76.72,93.77 L 76.27,96.68 L 75.60,99.70 L 74.60,102.41 L 73.22,104.41 L 71.52,105.42 L 69.59,105.30 L 67.61,104.11 L 65.71,102.06 L 64.00,99.50 L 62.52,96.87 L 61.25,94.61 L 60.06,93.06 L 58.84,92.44 L 57.42,92.81 L 55.71,94.03 L 53.66,95.82 L 51.32,97.79 L 48.82,99.52 L 46.36,100.63 L 44.16,100.86 L 42.44,100.09 L 41.32,98.36 L 40.85,95.86 L 40.95,92.90 L 41.42,89.85 L 41.98,87.03 L 42.32,84.73 L 42.16,83.08 L 41.28,82.12 L 39.60,81.73 L 37.20,81.69 L 34.29,81.75 L 31.19,81.65 L 28.31,81.19 L 26.01,80.24 L 24.61,78.78 L 24.27,76.91 L 24.99,74.77 L 26.60,72.54 L 28.78,70.39 L 31.12,68.45 L 33.19,66.77 L 34.60,65.32 L 35.10,64.00 L 34.60,62.68 L 33.19,61.23 L 31.12,59.55 L 28.78,57.61 L 26.60,55.46 L 24.99,53.23 L 24.27,51.09 L 24.61,49.22 L 26.01,47.76 L 28.31,46.81 L 31.19,46.35 L 34.29,46.25 L 37.20,46.31 L 39.60,46.27 L 41.28,45.88 L 42.16,44.92 L 42.32,43.27 L 41.98,40.97 L 41.42,38.15 L 40.95,35.10 L 40.85,32.14 L 41.32,29.64 L 42.44,27.91 L 44.16,27.14 L 46.36,27.37 L 48.82,28.48 L 51.32,30.21 L 53.66,32.18 L 55.71,33.97 L 57.42,35.19 L 58.84,35.56 L 60.06,34.94 L 61.25,33.39 L 62.52,31.13 L 64.00,28.50 L 65.71,25.94 L 67.61,23.89 L 69.59,22.70 L 71.52,22.58 L 73.22,23.59 L 74.60,25.59 L 75.60,28.30 L 76.27,31.32 L 76.72,34.23 L 77.16,36.66 L 77.81,38.34 L 78.85,39.14 L 80.44,39.10 L 82.59,38.42 L 85.22,37.39 L 88.13,36.38 L 91.05,35.71 L 93.64,35.66 L 95.62,36.37 L 96.79,37.85 L 97.04,40.00 L 96.45,42.58 L 95.24,45.34 L 93.71,48.01 L 92.28,50.38 L 91.30,52.33 L 91.08,53.84 L 91.79,54.97 L 93.43,55.88 L 95.82,56.74 L 98.64,57.71 L 101.48,58.92 L 103.90,60.41 L 105.53,62.14 L 106.10,64.00 Z" fill="none" stroke="#FFFFFF" stroke-width="1.72" opacity="0.95"/>
  <path d="M 99.50,64.00 L 96.87,65.48 L 94.61,66.75 L 93.06,67.94 L 92.44,69.16 L 92.81,70.58 L 94.03,72.29 L 95.82,74.34 L 97.79,76.68 L 99.52,79.18 L 100.63,81.64 L 100.86,83.84 L 100.09,85.56 L 98.36,86.68 L 95.86,87.15 L 92.90,87.05 L 89.85,86.58 L 87.03,86.02 L 84.73,85.68 L 83.08,85.84 L 82.12,86.72 L 81.73,88.40 L 81.69,90.80 L 81.75,93.71 L 81.65,96.81 L 81.19,99.69 L 80.24,101.99 L 78.78,103.39 L 76.91,103.73 L 74.77,103.01 L 72.54,101.40 L 70.39,99.22 L 68.45,96.88 L 66.77,94.81 L 65.32,93.40 L 64.00,92.90 L 62.68,93.40 L 61.23,94.81 L 59.55,96.88 L 57.61,99.22 L 55.46,101.40 L 53.23,103.01 L 51.09,103.73 L 49.22,103.39 L 47.76,101.99 L 46.81,99.69 L 46.35,96.81 L 46.25,93.71 L 46.31,90.80 L 46.27,88.40 L 45.88,86.72 L 44.92,85.84 L 43.27,85.68 L 40.97,86.02 L 38.15,86.58 L 35.10,87.05 L 32.14,87.15 L 29.64,86.68 L 27.91,85.56 L 27.14,83.84 L 27.37,81.64 L 28.48,79.18 L 30.21,76.68 L 32.18,74.34 L 33.97,72.29 L 35.19,70.58 L 35.56,69.16 L 34.94,67.94 L 33.39,66.75 L 31.13,65.48 L 28.50,64.00 L 25.94,62.29 L 23.89,60.39 L 22.70,58.41 L 22.58,56.48 L 23.59,54.78 L 25.59,53.40 L 28.30,52.40 L 31.32,51.73 L 34.23,51.28 L 36.66,50.84 L 38.34,50.19 L 39.14,49.15 L 39.10,47.56 L 38.42,45.41 L 37.39,42.78 L 36.38,39.87 L 35.71,36.95 L 35.66,34.36 L 36.37,32.38 L 37.85,31.21 L 40.00,30.96 L 42.58,31.55 L 45.34,32.76 L 48.01,34.29 L 50.38,35.72 L 52.33,36.70 L 53.84,36.92 L 54.97,36.21 L 55.88,34.57 L 56.74,32.18 L 57.71,29.36 L 58.92,26.52 L 60.41,24.10 L 62.14,22.47 L 64.00,21.90 L 65.86,22.47 L 67.59,24.10 L 69.08,26.52 L 70.29,29.36 L 71.26,32.18 L 72.12,34.57 L 73.03,36.21 L 74.16,36.92 L 75.67,36.70 L 77.62,35.72 L 79.99,34.29 L 82.66,32.76 L 85.42,31.55 L 88.00,30.96 L 90.15,31.21 L 91.63,32.38 L 92.34,34.36 L 92.29,36.95 L 91.62,39.87 L 90.61,42.78 L 89.58,45.41 L 88.90,47.56 L 88.86,49.15 L 89.66,50.19 L 91.34,50.84 L 93.77,51.28 L 96.68,51.73 L 99.70,52.40 L 102.41,53.40 L 104.41,54.78 L 105.42,56.48 L 105.30,58.41 L 104.11,60.39 L 102.06,62.29 L 99.50,64.00 Z" fill="none" stroke="#FFFFFF" stroke-width="1.72" opacity="0.95"/>
  <path d="M 92.90,64.00 L 93.40,65.32 L 94.81,66.77 L 96.88,68.45 L 99.22,70.39 L 101.40,72.54 L 103.01,74.77 L 103.73,76.91 L 103.39,78.78 L 101.99,80.24 L 99.69,81.19 L 96.81,81.65 L 93.71,81.75 L 90.80,81.69 L 88.40,81.73 L 86.72,82.12 L 85.84,83.08 L 85.68,84.73 L 86.02,87.03 L 86.58,89.85 L 87.05,92.90 L 87.15,95.86 L 86.68,98.36 L 85.56,100.09 L 83.84,100.86 L 81.64,100.63 L 79.18,99.52 L 76.68,97.79 L 74.34,95.82 L 72.29,94.03 L 70.58,92.81 L 69.16,92.44 L 67.94,93.06 L 66.75,94.61 L 65.48,96.87 L 64.00,99.50 L 62.29,102.06 L 60.39,104.11 L 58.41,105.30 L 56.48,105.42 L 54.78,104.41 L 53.40,102.41 L 52.40,99.70 L 51.73,96.68 L 51.28,93.77 L 50.84,91.34 L 50.19,89.66 L 49.15,88.86 L 47.56,88.90 L 45.41,89.58 L 42.78,90.61 L 39.87,91.62 L 36.95,92.29 L 34.36,92.34 L 32.38,91.63 L 31.21,90.15 L 30.96,88.00 L 31.55,85.42 L 32.76,82.66 L 34.29,79.99 L 35.72,77.62 L 36.70,75.67 L 36.92,74.16 L 36.21,73.03 L 34.57,72.12 L 32.18,71.26 L 29.36,70.29 L 26.52,69.08 L 24.10,67.59 L 22.47,65.86 L 21.90,64.00 L 22.47,62.14 L 24.10,60.41 L 26.52,58.92 L 29.36,57.71 L 32.18,56.74 L 34.57,55.88 L 36.21,54.97 L 36.92,53.84 L 36.70,52.33 L 35.72,50.38 L 34.29,48.01 L 32.76,45.34 L 31.55,42.58 L 30.96,40.00 L 31.21,37.85 L 32.38,36.37 L 34.36,35.66 L 36.95,35.71 L 39.87,36.38 L 42.78,37.39 L 45.41,38.42 L 47.56,39.10 L 49.15,39.14 L 50.19,38.34 L 50.84,36.66 L 51.28,34.23 L 51.73,31.32 L 52.40,28.30 L 53.40,25.59 L 54.78,23.59 L 56.48,22.58 L 58.41,22.70 L 60.39,23.89 L 62.29,25.94 L 64.00,28.50 L 65.48,31.13 L 66.75,33.39 L 67.94,34.94 L 69.16,35.56 L 70.58,35.19 L 72.29,33.97 L 74.34,32.18 L 76.68,30.21 L 79.18,28.48 L 81.64,27.37 L 83.84,27.14 L 85.56,27.91 L 86.68,29.64 L 87.15,32.14 L 87.05,35.10 L 86.58,38.15 L 86.02,40.97 L 85.68,43.27 L 85.84,44.92 L 86.72,45.88 L 88.40,46.27 L 90.80,46.31 L 93.71,46.25 L 96.81,46.35 L 99.69,46.81 L 101.99,47.76 L 103.39,49.22 L 103.73,51.09 L 103.01,53.23 L 101.40,55.46 L 99.22,57.61 L 96.88,59.55 L 94.81,61.23 L 93.40,62.68 L 92.90,64.00 Z" fill="none" stroke="#FFFFFF" stroke-width="1.72" opacity="0.95"/>
  <path d="M 85.00,64.00 L 86.88,65.03 L 88.57,66.21 L 89.93,67.51 L 90.86,68.87 L 91.27,70.22 L 91.13,71.49 L 90.44,72.59 L 89.25,73.48 L 87.64,74.10 L 85.72,74.46 L 83.62,74.56 L 81.48,74.44 L 79.43,74.18 L 77.59,73.87 L 76.05,73.61 L 74.86,73.49 L 74.06,73.62 L 73.62,74.06 L 73.49,74.86 L 73.61,76.05 L 73.87,77.59 L 74.18,79.43 L 74.44,81.48 L 74.56,83.62 L 74.46,85.72 L 74.10,87.64 L 73.48,89.25 L 72.59,90.44 L 71.49,91.13 L 70.22,91.27 L 68.87,90.86 L 67.51,89.93 L 66.21,88.57 L 65.03,86.88 L 64.00,85.00 L 63.14,83.08 L 62.45,81.26 L 61.87,79.69 L 61.37,78.47 L 60.88,77.68 L 60.31,77.36 L 59.61,77.50 L 58.72,78.07 L 57.60,78.98 L 56.23,80.13 L 54.65,81.37 L 52.90,82.58 L 51.05,83.62 L 49.19,84.39 L 47.42,84.79 L 45.86,84.77 L 44.59,84.30 L 43.70,83.41 L 43.23,82.14 L 43.21,80.58 L 43.61,78.81 L 44.38,76.95 L 45.42,75.10 L 46.63,73.35 L 47.87,71.77 L 49.02,70.40 L 49.93,69.28 L 50.50,68.39 L 50.64,67.69 L 50.32,67.12 L 49.53,66.63 L 48.31,66.13 L 46.74,65.55 L 44.92,64.86 L 43.00,64.00 L 41.12,62.97 L 39.43,61.79 L 38.07,60.49 L 37.14,59.13 L 36.73,57.78 L 36.87,56.51 L 37.56,55.41 L 38.75,54.52 L 40.36,53.90 L 42.28,53.54 L 44.38,53.44 L 46.52,53.56 L 48.57,53.82 L 50.41,54.13 L 51.95,54.39 L 53.14,54.51 L 53.94,54.38 L 54.38,53.94 L 54.51,53.14 L 54.39,51.95 L 54.13,50.41 L 53.82,48.57 L 53.56,46.52 L 53.44,44.38 L 53.54,42.28 L 53.90,40.36 L 54.52,38.75 L 55.41,37.56 L 56.51,36.87 L 57.78,36.73 L 59.13,37.14 L 60.49,38.07 L 61.79,39.43 L 62.97,41.12 L 64.00,43.00 L 64.86,44.92 L 65.55,46.74 L 66.13,48.31 L 66.63,49.53 L 67.12,50.32 L 67.69,50.64 L 68.39,50.50 L 69.28,49.93 L 70.40,49.02 L 71.77,47.87 L 73.35,46.63 L 75.10,45.42 L 76.95,44.38 L 78.81,43.61 L 80.58,43.21 L 82.14,43.23 L 83.41,43.70 L 84.30,44.59 L 84.77,45.86 L 84.79,47.42 L 84.39,49.19 L 83.62,51.05 L 82.58,52.90 L 81.37,54.65 L 80.13,56.23 L 78.98,57.60 L 78.07,58.72 L 77.50,59.61 L 77.36,60.31 L 77.68,60.88 L 78.47,61.37 L 79.69,61.87 L 81.26,62.45 L 83.08,63.14 L 85.00,64.00 Z" fill="none" stroke="#FFFFFF" stroke-width="1.88" opacity="1"/>
  <path d="M 91.19,64.00 L 89.99,65.17 L 88.38,66.19 L 86.49,67.05 L 84.45,67.71 L 82.42,68.20 L 80.53,68.56 L 78.92,68.85 L 77.67,69.13 L 76.86,69.50 L 76.50,70.02 L 76.57,70.76 L 77.01,71.77 L 77.74,73.07 L 78.64,74.63 L 79.59,76.43 L 80.46,78.38 L 81.14,80.39 L 81.53,82.34 L 81.58,84.12 L 81.24,85.62 L 80.52,86.74 L 79.45,87.41 L 78.10,87.60 L 76.54,87.30 L 74.86,86.55 L 73.16,85.44 L 71.53,84.06 L 70.03,82.56 L 68.71,81.07 L 67.59,79.73 L 66.66,78.68 L 65.90,78.01 L 65.24,77.80 L 64.63,78.07 L 64.00,78.81 L 63.28,79.97 L 62.43,81.45 L 61.41,83.13 L 60.21,84.87 L 58.86,86.53 L 57.39,87.95 L 55.87,89.03 L 54.37,89.65 L 52.99,89.76 L 51.79,89.34 L 50.86,88.42 L 50.23,87.05 L 49.93,85.32 L 49.95,83.34 L 50.24,81.25 L 50.74,79.17 L 51.36,77.22 L 51.98,75.49 L 52.49,74.05 L 52.79,72.94 L 52.76,72.16 L 52.36,71.68 L 51.54,71.44 L 50.31,71.37 L 48.71,71.36 L 46.81,71.35 L 44.74,71.23 L 42.61,70.95 L 40.58,70.46 L 38.79,69.76 L 37.35,68.84 L 36.39,67.74 L 35.96,66.52 L 36.11,65.25 L 36.81,64.00 L 38.01,62.83 L 39.62,61.81 L 41.51,60.95 L 43.55,60.29 L 45.58,59.80 L 47.47,59.44 L 49.08,59.15 L 50.33,58.87 L 51.14,58.50 L 51.50,57.98 L 51.43,57.24 L 50.99,56.23 L 50.26,54.93 L 49.36,53.37 L 48.41,51.57 L 47.54,49.62 L 46.86,47.61 L 46.47,45.66 L 46.42,43.88 L 46.76,42.38 L 47.48,41.26 L 48.55,40.59 L 49.90,40.40 L 51.46,40.70 L 53.14,41.45 L 54.84,42.56 L 56.47,43.94 L 57.97,45.44 L 59.29,46.93 L 60.41,48.27 L 61.34,49.32 L 62.10,49.99 L 62.76,50.20 L 63.37,49.93 L 64.00,49.19 L 64.72,48.03 L 65.57,46.55 L 66.59,44.87 L 67.79,43.13 L 69.14,41.47 L 70.61,40.05 L 72.13,38.97 L 73.63,38.35 L 75.01,38.24 L 76.21,38.66 L 77.14,39.58 L 77.77,40.95 L 78.07,42.68 L 78.05,44.66 L 77.76,46.75 L 77.26,48.83 L 76.64,50.78 L 76.02,52.51 L 75.51,53.95 L 75.21,55.06 L 75.24,55.84 L 75.64,56.32 L 76.46,56.56 L 77.69,56.63 L 79.29,56.64 L 81.19,56.65 L 83.26,56.77 L 85.39,57.05 L 87.42,57.54 L 89.21,58.24 L 90.65,59.16 L 91.61,60.26 L 92.04,61.48 L 91.89,62.75 L 91.19,64.00 Z" fill="none" stroke="#FFFFFF" stroke-width="1.88" opacity="1"/>
  <path d="M 78.81,64.00 L 78.07,64.63 L 77.80,65.24 L 78.01,65.90 L 78.68,66.66 L 79.73,67.59 L 81.07,68.71 L 82.56,70.03 L 84.06,71.53 L 85.44,73.16 L 86.55,74.86 L 87.30,76.54 L 87.60,78.10 L 87.41,79.45 L 86.74,80.52 L 85.62,81.24 L 84.12,81.58 L 82.34,81.53 L 80.39,81.14 L 78.38,80.46 L 76.43,79.59 L 74.63,78.64 L 73.07,77.74 L 71.77,77.01 L 70.76,76.57 L 70.02,76.50 L 69.50,76.86 L 69.13,77.67 L 68.85,78.92 L 68.56,80.53 L 68.20,82.42 L 67.71,84.45 L 67.05,86.49 L 66.19,88.38 L 65.17,89.99 L 64.00,91.19 L 62.75,91.89 L 61.48,92.04 L 60.26,91.61 L 59.16,90.65 L 58.24,89.21 L 57.54,87.42 L 57.05,85.39 L 56.77,83.26 L 56.65,81.19 L 56.64,79.29 L 56.63,77.69 L 56.56,76.46 L 56.32,75.64 L 55.84,75.24 L 55.06,75.21 L 53.95,75.51 L 52.51,76.02 L 50.78,76.64 L 48.83,77.26 L 46.75,77.76 L 44.66,78.05 L 42.68,78.07 L 40.95,77.77 L 39.58,77.14 L 38.66,76.21 L 38.24,75.01 L 38.35,73.63 L 38.97,72.13 L 40.05,70.61 L 41.47,69.14 L 43.13,67.79 L 44.87,66.59 L 46.55,65.57 L 48.03,64.72 L 49.19,64.00 L 49.93,63.37 L 50.20,62.76 L 49.99,62.10 L 49.32,61.34 L 48.27,60.41 L 46.93,59.29 L 45.44,57.97 L 43.94,56.47 L 42.56,54.84 L 41.45,53.14 L 40.70,51.46 L 40.40,49.90 L 40.59,48.55 L 41.26,47.48 L 42.38,46.76 L 43.88,46.42 L 45.66,46.47 L 47.61,46.86 L 49.62,47.54 L 51.57,48.41 L 53.37,49.36 L 54.93,50.26 L 56.23,50.99 L 57.24,51.43 L 57.98,51.50 L 58.50,51.14 L 58.87,50.33 L 59.15,49.08 L 59.44,47.47 L 59.80,45.58 L 60.29,43.55 L 60.95,41.51 L 61.81,39.62 L 62.83,38.01 L 64.00,36.81 L 65.25,36.11 L 66.52,35.96 L 67.74,36.39 L 68.84,37.35 L 69.76,38.79 L 70.46,40.58 L 70.95,42.61 L 71.23,44.74 L 71.35,46.81 L 71.36,48.71 L 71.37,50.31 L 71.44,51.54 L 71.68,52.36 L 72.16,52.76 L 72.94,52.79 L 74.05,52.49 L 75.49,51.98 L 77.22,51.36 L 79.17,50.74 L 81.25,50.24 L 83.34,49.95 L 85.32,49.93 L 87.05,50.23 L 88.42,50.86 L 89.34,51.79 L 89.76,52.99 L 89.65,54.37 L 89.03,55.87 L 87.95,57.39 L 86.53,58.86 L 84.87,60.21 L 83.13,61.41 L 81.45,62.43 L 79.97,63.28 L 78.81,64.00 Z" fill="none" stroke="#FFFFFF" stroke-width="1.88" opacity="1"/>
  <circle cx="64" cy="64" r="13" fill="none" stroke="#FFFFFF" stroke-width="0.5" opacity="0.55"/>
  </g>
</svg>
